<svg xmlns="http://www.w3.org/2000/svg" width="512" height="512" viewBox="0 0 512 512">
  <line x1="256" y1="80"  x2="256" y2="432" stroke="#d4a843" stroke-width="8" opacity="0.6" stroke-linecap="round"/>
  <line x1="80"  y1="256" x2="432" y2="256" stroke="#d4a843" stroke-width="8" opacity="0.6" stroke-linecap="round"/>
  <line x1="256" y1="256" x2="80"  y2="80"  stroke="#d4a843" stroke-width="6" opacity="0.15"/>
  <line x1="256" y1="256" x2="432" y2="80"  stroke="#d4a843" stroke-width="6" opacity="0.15"/>
  <line x1="256" y1="256" x2="432" y2="432" stroke="#d4a843" stroke-width="6" opacity="0.15"/>
  <line x1="256" y1="256" x2="80"  y2="432" stroke="#d4a843" stroke-width="6" opacity="0.15"/>
  <line x1="256" y1="256" x2="256" y2="64"  stroke="#7ab8f5" stroke-width="6" opacity="0.15"/>
  <line x1="256" y1="256" x2="448" y2="256" stroke="#7ab8f5" stroke-width="6" opacity="0.15"/>
  <line x1="256" y1="256" x2="64"  y2="256" stroke="#7dd4a0" stroke-width="6" opacity="0.15"/>
  <line x1="256" y1="256" x2="256" y2="448" stroke="#7dd4a0" stroke-width="6" opacity="0.15"/>
  <circle cx="80"  cy="80"  r="20" fill="#d4a843" opacity="0.5"/>
  <circle cx="432" cy="80"  r="20" fill="#d4a843" opacity="0.5"/>
  <circle cx="432" cy="432" r="20" fill="#d4a843" opacity="0.5"/>
  <circle cx="80"  cy="432" r="20" fill="#d4a843" opacity="0.5"/>
  <circle cx="256" cy="64"  r="16" fill="#7ab8f5" opacity="0.5"/>
  <circle cx="448" cy="256" r="16" fill="#7ab8f5" opacity="0.5"/>
  <circle cx="64"  cy="256" r="16" fill="#7dd4a0" opacity="0.5"/>
  <circle cx="256" cy="448" r="16" fill="#7dd4a0" opacity="0.5"/>
  <circle cx="256" cy="256" r="32" fill="#d4a843"/>
</svg>